<svg id="Capa_1" enable-background="new 0 0 512.002 512.002" height="512" viewBox="0 0 512.002 512.002" width="512" xmlns="http://www.w3.org/2000/svg"><path d="m490.11 12.765c-2.313-1.9-5.356-2.664-8.29-2.082l-62.428 12.371c-15.783-14.318-36.72-23.054-59.658-23.054-25.822 0-49.108 11.07-65.36 28.713l-160.277-28.542c-1.514-.284-3.094-.218-4.614.221l-104.017 30.017c-4.281 1.235-7.228 5.153-7.228 9.608v451.49c0 3.143 1.477 6.103 3.989 7.991 1.753 1.319 3.867 2.009 6.012 2.009.927 0 1.861-.129 2.772-.392l101.783-29.373 224.98 40.065c.636.127 1.289.194 1.951.194.778 0 1.57-.091 2.36-.282l124.029-30.018c4.487-1.086 7.648-5.103 7.648-9.72v-451.489c.001-2.993-1.339-5.828-3.652-7.727zm-130.376 7.235c37.977 0 68.873 30.896 68.873 68.873 0 54.06-51.59 98.203-68.882 111.478-17.309-13.251-68.864-57.281-68.864-111.478 0-37.976 30.896-68.873 68.873-68.873zm-321.495 27.54 84.017-24.246v430.674l-84.017 24.246zm435.524 416.575-104.029 25.177v-135.434c0-5.522-4.477-10-10-10s-10 4.478-10 10v136.204l-207.478-36.948v-431.175l139.245 24.796c-6.785 12.547-10.64 26.901-10.64 42.138 0 66.091 61.48 116.176 78.873 129.021v45.551c0 5.522 4.477 10 10 10s10-4.478 10-10v-45.551c17.393-12.845 78.873-62.93 78.873-129.021 0-17.828-5.277-34.446-14.35-48.376l39.506-7.829z"/><path d="m203.736 229.741c1.953 1.952 4.512 2.929 7.071 2.929s5.119-.977 7.071-2.929l10.96-10.96 10.96 10.96c1.953 1.952 4.512 2.929 7.071 2.929s5.119-.977 7.071-2.929c3.905-3.905 3.906-10.237.001-14.143l-10.96-10.96 10.96-10.96c3.905-3.905 3.905-10.237-.001-14.143-3.905-3.904-10.237-3.904-14.142 0l-10.96 10.96-10.96-10.96c-3.906-3.903-10.237-3.904-14.142 0-3.905 3.905-3.906 10.237-.001 14.143l10.96 10.96-10.96 10.96c-3.905 3.906-3.905 10.238.001 14.143z"/><path d="m264.57 337.992c-41.154-12.105-79.465-.944-87.22 25.415s18.406 56.492 59.559 68.601c11.24 3.307 22.264 4.877 32.515 4.877 27.282 0 49.068-11.132 54.705-30.292 7.754-26.359-18.407-56.492-59.559-68.601zm40.372 62.956c-3.872 13.158-30.448 21.272-62.388 11.872-31.942-9.397-49.889-30.609-46.018-43.768 2.709-9.204 16.524-15.94 35.517-15.94 8.159 0 17.273 1.243 26.872 4.067 31.941 9.398 49.888 30.61 46.017 43.769z"/><path d="m359.731 318.47c-4.239 0-8.098-2.785-9.46-6.789-1.361-4.001.014-8.573 3.373-11.147 3.187-2.442 7.619-2.71 11.093-.713 3.564 2.048 5.535 6.221 4.863 10.277-.789 4.76-5.04 8.372-9.869 8.372z"/><path d="m359.734 140.361c-28.39 0-51.487-23.097-51.487-51.487 0-28.391 23.097-51.487 51.487-51.487s51.487 23.097 51.487 51.487-23.097 51.487-51.487 51.487zm0-82.975c-17.362 0-31.487 14.125-31.487 31.487s14.125 31.487 31.487 31.487 31.487-14.125 31.487-31.487-14.125-31.487-31.487-31.487z"/></svg>