<?xml version="1.0" encoding="utf-8"?>
<!-- Generator: Adobe Illustrator 23.0.3, SVG Export Plug-In . SVG Version: 6.00 Build 0)  -->
<svg version="1.1" id="_x30_" xmlns="http://www.w3.org/2000/svg" xmlns:xlink="http://www.w3.org/1999/xlink" x="0px" y="0px"
	 viewBox="0 0 705.18 470.88" style="enable-background:new 0 0 705.18 470.88;" xml:space="preserve">
<style type="text/css">
	.st0{fill:none;stroke:#000000;stroke-width:2;stroke-linecap:round;stroke-linejoin:round;stroke-miterlimit:10;}
	.st1{fill:#FF0000;stroke:#FF0000;stroke-width:1.2954;stroke-linecap:round;stroke-linejoin:round;stroke-miterlimit:10;}
	.st2{fill:#FF0000;stroke:#FF0000;stroke-width:0.7367;stroke-linecap:round;stroke-linejoin:round;stroke-miterlimit:10;}
	.st3{fill:none;stroke:#FF4D4D;stroke-linecap:round;stroke-linejoin:round;stroke-miterlimit:10;}
	.st4{fill:none;stroke:#59AB29;stroke-width:1.2954;stroke-linecap:round;stroke-linejoin:round;stroke-miterlimit:10;}
	.st5{fill:none;stroke:#204085;stroke-width:0.7668;stroke-linecap:round;stroke-linejoin:round;stroke-miterlimit:10;}
	.st6{fill:#204085;stroke:#204085;stroke-width:0.0903;stroke-linecap:round;stroke-linejoin:round;stroke-miterlimit:10;}
	.st7{fill:none;stroke:#204085;stroke-width:0.8365;stroke-linecap:round;stroke-linejoin:round;stroke-miterlimit:10;}
</style>
<g id="LINE">
	<line class="st0" x1="54.9" y1="74.41" x2="54.9" y2="108.4"/>
</g>
<g id="LINE_1_">
	<line class="st0" x1="54.9" y1="108.4" x2="54.9" y2="142.39"/>
</g>
<g id="LINE_2_">
	<line class="st0" x1="54.9" y1="142.39" x2="54.9" y2="176.38"/>
</g>
<g id="LINE_3_">
	<line class="st0" x1="54.9" y1="176.38" x2="54.9" y2="210.37"/>
</g>
<g id="LINE_4_">
	<line class="st0" x1="54.9" y1="74.41" x2="114.39" y2="74.41"/>
</g>
<g id="LINE_5_">
	<line class="st0" x1="114.39" y1="74.41" x2="114.39" y2="88"/>
</g>
<g id="LINE_6_">
	<line class="st0" x1="54.9" y1="108.4" x2="114.39" y2="108.4"/>
</g>
<g id="LINE_7_">
	<line class="st0" x1="114.39" y1="108.4" x2="114.39" y2="94.8"/>
</g>
<g id="LINE_8_">
	<line class="st0" x1="114.39" y1="88" x2="117.79" y2="88"/>
</g>
<g id="LINE_9_">
	<line class="st0" x1="117.79" y1="88" x2="114.39" y2="88"/>
</g>
<g id="LINE_10_">
	<line class="st0" x1="114.39" y1="88" x2="110.99" y2="88"/>
</g>
<g id="LINE_11_">
	<line class="st0" x1="114.39" y1="94.8" x2="117.79" y2="94.8"/>
</g>
<g id="LINE_12_">
	<line class="st0" x1="117.79" y1="94.8" x2="110.99" y2="94.8"/>
</g>
<g id="LINE_13_">
	<line class="st0" x1="54.9" y1="108.4" x2="114.39" y2="108.4"/>
</g>
<g id="LINE_14_">
	<line class="st0" x1="114.39" y1="108.4" x2="114.39" y2="121.99"/>
</g>
<g id="LINE_15_">
	<line class="st0" x1="54.9" y1="142.39" x2="114.39" y2="142.39"/>
</g>
<g id="LINE_16_">
	<line class="st0" x1="114.39" y1="142.39" x2="114.39" y2="128.79"/>
</g>
<g id="LINE_17_">
	<line class="st0" x1="114.39" y1="121.99" x2="117.79" y2="121.99"/>
</g>
<g id="LINE_18_">
	<line class="st0" x1="117.79" y1="121.99" x2="114.39" y2="121.99"/>
</g>
<g id="LINE_19_">
	<line class="st0" x1="114.39" y1="121.99" x2="110.99" y2="121.99"/>
</g>
<g id="LINE_20_">
	<line class="st0" x1="114.39" y1="128.79" x2="117.79" y2="128.79"/>
</g>
<g id="LINE_21_">
	<line class="st0" x1="117.79" y1="128.79" x2="110.99" y2="128.79"/>
</g>
<g id="LINE_22_">
	<line class="st0" x1="54.9" y1="142.39" x2="114.39" y2="142.39"/>
</g>
<g id="LINE_23_">
	<line class="st0" x1="114.39" y1="142.39" x2="114.39" y2="155.98"/>
</g>
<g id="LINE_24_">
	<line class="st0" x1="54.9" y1="176.38" x2="114.39" y2="176.38"/>
</g>
<g id="LINE_25_">
	<line class="st0" x1="114.39" y1="176.38" x2="114.39" y2="162.78"/>
</g>
<g id="LINE_26_">
	<line class="st0" x1="114.39" y1="155.98" x2="117.79" y2="155.98"/>
</g>
<g id="LINE_27_">
	<line class="st0" x1="117.79" y1="155.98" x2="114.39" y2="155.98"/>
</g>
<g id="LINE_28_">
	<line class="st0" x1="114.39" y1="155.98" x2="110.99" y2="155.98"/>
</g>
<g id="LINE_29_">
	<line class="st0" x1="114.39" y1="162.78" x2="117.79" y2="162.78"/>
</g>
<g id="LINE_30_">
	<line class="st0" x1="117.79" y1="162.78" x2="110.99" y2="162.78"/>
</g>
<g id="LINE_31_">
	<line class="st0" x1="54.9" y1="176.38" x2="114.39" y2="176.38"/>
</g>
<g id="LINE_32_">
	<line class="st0" x1="114.39" y1="176.38" x2="114.39" y2="189.97"/>
</g>
<g id="LINE_33_">
	<line class="st0" x1="54.9" y1="210.37" x2="114.39" y2="210.37"/>
</g>
<g id="LINE_34_">
	<line class="st0" x1="114.39" y1="210.37" x2="114.39" y2="196.77"/>
</g>
<g id="LINE_35_">
	<line class="st0" x1="114.39" y1="189.97" x2="117.79" y2="189.97"/>
</g>
<g id="LINE_36_">
	<line class="st0" x1="117.79" y1="189.97" x2="114.39" y2="189.97"/>
</g>
<g id="LINE_37_">
	<line class="st0" x1="114.39" y1="189.97" x2="110.99" y2="189.97"/>
</g>
<g id="LINE_38_">
	<line class="st0" x1="114.39" y1="196.77" x2="117.79" y2="196.77"/>
</g>
<g id="LINE_39_">
	<line class="st0" x1="117.79" y1="196.77" x2="110.99" y2="196.77"/>
</g>
<g id="LINE_40_">
	<line class="st0" x1="75.33" y1="210.37" x2="75.33" y2="235.86"/>
</g>
<g id="LINE_41_">
	<line class="st0" x1="54.9" y1="235.86" x2="114.39" y2="235.86"/>
</g>
<g id="LINE_42_">
	<line class="st0" x1="114.39" y1="235.86" x2="114.39" y2="226.51"/>
</g>
<g id="LINE_43_">
	<line class="st0" x1="114.39" y1="210.37" x2="114.39" y2="219.72"/>
</g>
<g id="LINE_44_">
	<line class="st0" x1="114.39" y1="219.72" x2="117.79" y2="219.72"/>
</g>
<g id="LINE_45_">
	<line class="st0" x1="117.79" y1="219.72" x2="110.99" y2="219.72"/>
</g>
<g id="LINE_46_">
	<line class="st0" x1="114.39" y1="226.51" x2="117.79" y2="226.51"/>
</g>
<g id="LINE_47_">
	<line class="st0" x1="117.79" y1="226.51" x2="110.99" y2="226.51"/>
</g>
<g id="LINE_48_">
	<line class="st0" x1="54.9" y1="235.86" x2="54.9" y2="269.85"/>
</g>
<g id="LINE_49_">
	<line class="st0" x1="54.9" y1="269.85" x2="54.9" y2="303.84"/>
</g>
<g id="LINE_50_">
	<line class="st0" x1="54.9" y1="303.84" x2="54.9" y2="337.84"/>
</g>
<g id="LINE_51_">
	<line class="st0" x1="54.9" y1="337.84" x2="54.9" y2="371.83"/>
</g>
<g id="LINE_52_">
	<line class="st0" x1="54.9" y1="235.86" x2="114.39" y2="235.86"/>
</g>
<g id="LINE_53_">
	<line class="st0" x1="114.39" y1="235.86" x2="114.39" y2="249.46"/>
</g>
<g id="LINE_54_">
	<line class="st0" x1="54.9" y1="269.85" x2="114.39" y2="269.85"/>
</g>
<g id="LINE_55_">
	<line class="st0" x1="114.39" y1="269.85" x2="114.39" y2="256.26"/>
</g>
<g id="LINE_56_">
	<line class="st0" x1="114.39" y1="249.46" x2="117.79" y2="249.46"/>
</g>
<g id="LINE_57_">
	<line class="st0" x1="117.79" y1="249.46" x2="114.39" y2="249.46"/>
</g>
<g id="LINE_58_">
	<line class="st0" x1="114.39" y1="249.46" x2="110.99" y2="249.46"/>
</g>
<g id="LINE_59_">
	<line class="st0" x1="114.39" y1="256.26" x2="117.79" y2="256.26"/>
</g>
<g id="LINE_60_">
	<line class="st0" x1="117.79" y1="256.26" x2="110.99" y2="256.26"/>
</g>
<g id="LINE_61_">
	<line class="st0" x1="54.9" y1="269.85" x2="114.39" y2="269.85"/>
</g>
<g id="LINE_62_">
	<line class="st0" x1="114.39" y1="269.85" x2="114.39" y2="283.45"/>
</g>
<g id="LINE_63_">
	<line class="st0" x1="54.9" y1="303.84" x2="114.39" y2="303.84"/>
</g>
<g id="LINE_64_">
	<line class="st0" x1="114.39" y1="303.84" x2="114.39" y2="290.25"/>
</g>
<g id="LINE_65_">
	<line class="st0" x1="114.39" y1="283.45" x2="117.79" y2="283.45"/>
</g>
<g id="LINE_66_">
	<line class="st0" x1="117.79" y1="283.45" x2="114.39" y2="283.45"/>
</g>
<g id="LINE_67_">
	<line class="st0" x1="114.39" y1="283.45" x2="110.99" y2="283.45"/>
</g>
<g id="LINE_68_">
	<line class="st0" x1="114.39" y1="290.25" x2="117.79" y2="290.25"/>
</g>
<g id="LINE_69_">
	<line class="st0" x1="117.79" y1="290.25" x2="110.99" y2="290.25"/>
</g>
<g id="LINE_70_">
	<line class="st0" x1="54.9" y1="303.84" x2="114.39" y2="303.84"/>
</g>
<g id="LINE_71_">
	<line class="st0" x1="114.39" y1="303.84" x2="114.39" y2="317.44"/>
</g>
<g id="LINE_72_">
	<line class="st0" x1="54.9" y1="337.84" x2="114.39" y2="337.84"/>
</g>
<g id="LINE_73_">
	<line class="st0" x1="114.39" y1="337.84" x2="114.39" y2="324.24"/>
</g>
<g id="LINE_74_">
	<line class="st0" x1="114.39" y1="317.44" x2="117.79" y2="317.44"/>
</g>
<g id="LINE_75_">
	<line class="st0" x1="117.79" y1="317.44" x2="114.39" y2="317.44"/>
</g>
<g id="LINE_76_">
	<line class="st0" x1="114.39" y1="317.44" x2="110.99" y2="317.44"/>
</g>
<g id="LINE_77_">
	<line class="st0" x1="114.39" y1="324.24" x2="117.79" y2="324.24"/>
</g>
<g id="LINE_78_">
	<line class="st0" x1="117.79" y1="324.24" x2="110.99" y2="324.24"/>
</g>
<g id="LINE_79_">
	<line class="st0" x1="54.9" y1="337.84" x2="114.39" y2="337.84"/>
</g>
<g id="LINE_80_">
	<line class="st0" x1="114.39" y1="337.84" x2="114.39" y2="351.43"/>
</g>
<g id="LINE_81_">
	<line class="st0" x1="54.9" y1="371.83" x2="114.39" y2="371.83"/>
</g>
<g id="LINE_82_">
	<line class="st0" x1="114.39" y1="371.83" x2="114.39" y2="358.23"/>
</g>
<g id="LINE_83_">
	<line class="st0" x1="114.39" y1="351.43" x2="117.79" y2="351.43"/>
</g>
<g id="LINE_84_">
	<line class="st0" x1="117.79" y1="351.43" x2="114.39" y2="351.43"/>
</g>
<g id="LINE_85_">
	<line class="st0" x1="114.39" y1="351.43" x2="110.99" y2="351.43"/>
</g>
<g id="LINE_86_">
	<line class="st0" x1="114.39" y1="358.23" x2="117.79" y2="358.23"/>
</g>
<g id="LINE_87_">
	<line class="st0" x1="117.79" y1="358.23" x2="110.99" y2="358.23"/>
</g>
<g id="LINE_88_">
	<line class="st0" x1="54.9" y1="176.38" x2="54.9" y2="201.52"/>
</g>
<g id="LINE_89_">
	<line class="st0" x1="54.9" y1="206.12" x2="54.9" y2="240.11"/>
</g>
<g id="LINE_90_">
	<line class="st0" x1="54.9" y1="206.12" x2="54.9" y2="240.11"/>
</g>
<g id="LINE_91_">
	<line class="st0" x1="65.12" y1="210.37" x2="65.12" y2="235.86"/>
</g>
<g id="LINE_92_">
	<line class="st0" x1="65.12" y1="210.37" x2="65.12" y2="235.86"/>
</g>
<g id="LINE_93_">
	<line class="st0" x1="75.33" y1="210.37" x2="75.33" y2="235.86"/>
</g>
<g id="LINE_94_">
	<line class="st0" x1="75.33" y1="210.37" x2="75.33" y2="235.86"/>
</g>
<g id="LINE_95_">
	<line class="st0" x1="85.55" y1="210.37" x2="85.55" y2="235.86"/>
</g>
<g id="LINE_96_">
	<line class="st0" x1="85.55" y1="210.37" x2="85.55" y2="235.86"/>
</g>
<g id="LINE_97_">
	<line class="st0" x1="95.77" y1="210.37" x2="95.77" y2="235.86"/>
</g>
<g id="LINE_98_">
	<line class="st0" x1="95.77" y1="210.37" x2="95.77" y2="235.86"/>
</g>
<g id="LINE_99_">
	<line class="st0" x1="95.77" y1="210.37" x2="95.77" y2="235.86"/>
</g>
<g id="LINE_100_">
	<line class="st0" x1="95.77" y1="210.37" x2="95.77" y2="235.86"/>
</g>
<g id="LINE_101_">
	<line class="st0" x1="105.98" y1="210.37" x2="105.98" y2="235.86"/>
</g>
<g id="LINE_102_">
	<line class="st0" x1="105.98" y1="210.37" x2="105.98" y2="235.86"/>
</g>
<g id="LINE_103_">
	<line class="st0" x1="114.39" y1="371.83" x2="148.38" y2="371.83"/>
</g>
<g id="LINE_104_">
	<line class="st0" x1="148.38" y1="371.83" x2="148.38" y2="74.41"/>
</g>
<g id="LINE_105_">
	<line class="st0" x1="148.38" y1="74.41" x2="114.39" y2="74.41"/>
</g>
<g id="LINE_106_">
	<line class="st0" x1="114.39" y1="81.2" x2="148.38" y2="81.2"/>
</g>
<g id="LINE_107_">
	<line class="st0" x1="114.39" y1="101.6" x2="148.38" y2="101.6"/>
</g>
<g id="LINE_108_">
	<line class="st0" x1="114.39" y1="101.6" x2="114.39" y2="94.8"/>
</g>
<g id="LINE_109_">
	<line class="st0" x1="119.28" y1="94.8" x2="148.38" y2="94.8"/>
</g>
<g id="LINE_110_">
	<line class="st0" x1="148.38" y1="94.8" x2="148.38" y2="88"/>
</g>
<g id="LINE_111_">
	<line class="st0" x1="148.38" y1="88" x2="119.28" y2="88"/>
</g>
<g id="LINE_112_">
	<line class="st0" x1="148.38" y1="269.85" x2="445.8" y2="269.85"/>
</g>
<g id="LINE_113_">
	<line class="st0" x1="148.38" y1="210.37" x2="445.8" y2="210.37"/>
</g>
<g id="LINE_114_">
	<line class="st0" x1="445.8" y1="74.41" x2="445.8" y2="108.4"/>
</g>
<g id="LINE_115_">
	<line class="st0" x1="445.8" y1="108.4" x2="445.8" y2="142.39"/>
</g>
<g id="LINE_116_">
	<line class="st0" x1="445.8" y1="142.39" x2="445.8" y2="176.38"/>
</g>
<g id="LINE_117_">
	<line class="st0" x1="445.8" y1="176.38" x2="445.8" y2="210.37"/>
</g>
<g id="LINE_118_">
	<line class="st0" x1="445.8" y1="74.41" x2="505.28" y2="74.41"/>
</g>
<g id="LINE_119_">
	<line class="st0" x1="505.28" y1="74.41" x2="505.28" y2="88"/>
</g>
<g id="LINE_120_">
	<line class="st0" x1="445.8" y1="108.4" x2="505.28" y2="108.4"/>
</g>
<g id="LINE_121_">
	<line class="st0" x1="505.28" y1="108.4" x2="505.28" y2="94.8"/>
</g>
<g id="LINE_122_">
	<line class="st0" x1="505.28" y1="88" x2="508.68" y2="88"/>
</g>
<g id="LINE_123_">
	<line class="st0" x1="508.68" y1="88" x2="505.28" y2="88"/>
</g>
<g id="LINE_124_">
	<line class="st0" x1="505.28" y1="88" x2="501.88" y2="88"/>
</g>
<g id="LINE_125_">
	<line class="st0" x1="505.28" y1="94.8" x2="508.68" y2="94.8"/>
</g>
<g id="LINE_126_">
	<line class="st0" x1="508.68" y1="94.8" x2="501.88" y2="94.8"/>
</g>
<g id="LINE_127_">
	<line class="st0" x1="445.8" y1="108.4" x2="505.28" y2="108.4"/>
</g>
<g id="LINE_128_">
	<line class="st0" x1="505.28" y1="108.4" x2="505.28" y2="121.99"/>
</g>
<g id="LINE_129_">
	<line class="st0" x1="445.8" y1="142.39" x2="505.28" y2="142.39"/>
</g>
<g id="LINE_130_">
	<line class="st0" x1="505.28" y1="142.39" x2="505.28" y2="128.79"/>
</g>
<g id="LINE_131_">
	<line class="st0" x1="505.28" y1="121.99" x2="508.68" y2="121.99"/>
</g>
<g id="LINE_132_">
	<line class="st0" x1="508.68" y1="121.99" x2="505.28" y2="121.99"/>
</g>
<g id="LINE_133_">
	<line class="st0" x1="505.28" y1="121.99" x2="501.88" y2="121.99"/>
</g>
<g id="LINE_134_">
	<line class="st0" x1="505.28" y1="128.79" x2="508.68" y2="128.79"/>
</g>
<g id="LINE_135_">
	<line class="st0" x1="508.68" y1="128.79" x2="501.88" y2="128.79"/>
</g>
<g id="LINE_136_">
	<line class="st0" x1="445.8" y1="142.39" x2="505.28" y2="142.39"/>
</g>
<g id="LINE_137_">
	<line class="st0" x1="505.28" y1="142.39" x2="505.28" y2="155.98"/>
</g>
<g id="LINE_138_">
	<line class="st0" x1="445.8" y1="176.38" x2="505.28" y2="176.38"/>
</g>
<g id="LINE_139_">
	<line class="st0" x1="505.28" y1="176.38" x2="505.28" y2="162.78"/>
</g>
<g id="LINE_140_">
	<line class="st0" x1="505.28" y1="155.98" x2="508.68" y2="155.98"/>
</g>
<g id="LINE_141_">
	<line class="st0" x1="508.68" y1="155.98" x2="505.28" y2="155.98"/>
</g>
<g id="LINE_142_">
	<line class="st0" x1="505.28" y1="155.98" x2="501.88" y2="155.98"/>
</g>
<g id="LINE_143_">
	<line class="st0" x1="505.28" y1="162.78" x2="508.68" y2="162.78"/>
</g>
<g id="LINE_144_">
	<line class="st0" x1="508.68" y1="162.78" x2="501.88" y2="162.78"/>
</g>
<g id="LINE_145_">
	<line class="st0" x1="445.8" y1="176.38" x2="505.28" y2="176.38"/>
</g>
<g id="LINE_146_">
	<line class="st0" x1="505.28" y1="176.38" x2="505.28" y2="189.97"/>
</g>
<g id="LINE_147_">
	<line class="st0" x1="445.8" y1="210.37" x2="505.28" y2="210.37"/>
</g>
<g id="LINE_148_">
	<line class="st0" x1="505.28" y1="210.37" x2="505.28" y2="196.77"/>
</g>
<g id="LINE_149_">
	<line class="st0" x1="505.28" y1="189.97" x2="508.68" y2="189.97"/>
</g>
<g id="LINE_150_">
	<line class="st0" x1="508.68" y1="189.97" x2="505.28" y2="189.97"/>
</g>
<g id="LINE_151_">
	<line class="st0" x1="505.28" y1="189.97" x2="501.88" y2="189.97"/>
</g>
<g id="LINE_152_">
	<line class="st0" x1="505.28" y1="196.77" x2="508.68" y2="196.77"/>
</g>
<g id="LINE_153_">
	<line class="st0" x1="508.68" y1="196.77" x2="501.88" y2="196.77"/>
</g>
<g id="LINE_154_">
	<line class="st0" x1="445.8" y1="176.38" x2="445.8" y2="201.52"/>
</g>
<g id="LINE_155_">
	<line class="st0" x1="539.27" y1="74.41" x2="505.28" y2="74.41"/>
</g>
<g id="LINE_156_">
	<line class="st0" x1="505.28" y1="81.2" x2="539.27" y2="81.2"/>
</g>
<g id="LINE_157_">
	<line class="st0" x1="505.28" y1="101.6" x2="539.27" y2="101.6"/>
</g>
<g id="LINE_158_">
	<line class="st0" x1="505.28" y1="101.6" x2="505.28" y2="94.8"/>
</g>
<g id="LINE_159_">
	<line class="st0" x1="510.18" y1="94.8" x2="539.27" y2="94.8"/>
</g>
<g id="LINE_160_">
	<line class="st0" x1="539.27" y1="94.8" x2="539.27" y2="88"/>
</g>
<g id="LINE_161_">
	<line class="st0" x1="539.27" y1="88" x2="510.18" y2="88"/>
</g>
<g id="LINE_162_">
	<line class="st0" x1="505.28" y1="210.37" x2="539.27" y2="210.37"/>
</g>
<g id="LINE_163_">
	<line class="st0" x1="539.27" y1="210.37" x2="539.27" y2="74.41"/>
</g>
<g id="LINE_164_">
	<line class="st0" x1="237.6" y1="74.41" x2="237.6" y2="108.4"/>
</g>
<g id="LINE_165_">
	<line class="st0" x1="237.6" y1="108.4" x2="237.6" y2="142.39"/>
</g>
<g id="LINE_166_">
	<line class="st0" x1="237.6" y1="142.39" x2="237.6" y2="176.38"/>
</g>
<g id="LINE_167_">
	<line class="st0" x1="237.6" y1="176.38" x2="237.6" y2="210.37"/>
</g>
<g id="LINE_168_">
	<line class="st0" x1="237.6" y1="74.41" x2="297.09" y2="74.41"/>
</g>
<g id="LINE_169_">
	<line class="st0" x1="297.09" y1="74.41" x2="297.09" y2="88"/>
</g>
<g id="LINE_170_">
	<line class="st0" x1="237.6" y1="108.4" x2="297.09" y2="108.4"/>
</g>
<g id="LINE_171_">
	<line class="st0" x1="297.09" y1="108.4" x2="297.09" y2="94.8"/>
</g>
<g id="LINE_172_">
	<line class="st0" x1="297.09" y1="88" x2="300.49" y2="88"/>
</g>
<g id="LINE_173_">
	<line class="st0" x1="300.49" y1="88" x2="297.09" y2="88"/>
</g>
<g id="LINE_174_">
	<line class="st0" x1="297.09" y1="88" x2="293.69" y2="88"/>
</g>
<g id="LINE_175_">
	<line class="st0" x1="297.09" y1="94.8" x2="300.49" y2="94.8"/>
</g>
<g id="LINE_176_">
	<line class="st0" x1="300.49" y1="94.8" x2="293.69" y2="94.8"/>
</g>
<g id="LINE_177_">
	<line class="st0" x1="237.6" y1="108.4" x2="297.09" y2="108.4"/>
</g>
<g id="LINE_178_">
	<line class="st0" x1="297.09" y1="108.4" x2="297.09" y2="121.99"/>
</g>
<g id="LINE_179_">
	<line class="st0" x1="237.6" y1="142.39" x2="297.09" y2="142.39"/>
</g>
<g id="LINE_180_">
	<line class="st0" x1="297.09" y1="142.39" x2="297.09" y2="128.79"/>
</g>
<g id="LINE_181_">
	<line class="st0" x1="297.09" y1="121.99" x2="300.49" y2="121.99"/>
</g>
<g id="LINE_182_">
	<line class="st0" x1="300.49" y1="121.99" x2="297.09" y2="121.99"/>
</g>
<g id="LINE_183_">
	<line class="st0" x1="297.09" y1="121.99" x2="293.69" y2="121.99"/>
</g>
<g id="LINE_184_">
	<line class="st0" x1="297.09" y1="128.79" x2="300.49" y2="128.79"/>
</g>
<g id="LINE_185_">
	<line class="st0" x1="300.49" y1="128.79" x2="293.69" y2="128.79"/>
</g>
<g id="LINE_186_">
	<line class="st0" x1="237.6" y1="142.39" x2="297.09" y2="142.39"/>
</g>
<g id="LINE_187_">
	<line class="st0" x1="297.09" y1="142.39" x2="297.09" y2="155.98"/>
</g>
<g id="LINE_188_">
	<line class="st0" x1="237.6" y1="176.38" x2="297.09" y2="176.38"/>
</g>
<g id="LINE_189_">
	<line class="st0" x1="297.09" y1="176.38" x2="297.09" y2="162.78"/>
</g>
<g id="LINE_190_">
	<line class="st0" x1="297.09" y1="155.98" x2="300.49" y2="155.98"/>
</g>
<g id="LINE_191_">
	<line class="st0" x1="300.49" y1="155.98" x2="297.09" y2="155.98"/>
</g>
<g id="LINE_192_">
	<line class="st0" x1="297.09" y1="155.98" x2="293.69" y2="155.98"/>
</g>
<g id="LINE_193_">
	<line class="st0" x1="297.09" y1="162.78" x2="300.49" y2="162.78"/>
</g>
<g id="LINE_194_">
	<line class="st0" x1="300.49" y1="162.78" x2="293.69" y2="162.78"/>
</g>
<g id="LINE_195_">
	<line class="st0" x1="237.6" y1="176.38" x2="297.09" y2="176.38"/>
</g>
<g id="LINE_196_">
	<line class="st0" x1="297.09" y1="176.38" x2="297.09" y2="189.97"/>
</g>
<g id="LINE_197_">
	<line class="st0" x1="237.6" y1="210.37" x2="297.09" y2="210.37"/>
</g>
<g id="LINE_198_">
	<line class="st0" x1="297.09" y1="210.37" x2="297.09" y2="196.77"/>
</g>
<g id="LINE_199_">
	<line class="st0" x1="297.09" y1="189.97" x2="300.49" y2="189.97"/>
</g>
<g id="LINE_200_">
	<line class="st0" x1="300.49" y1="189.97" x2="297.09" y2="189.97"/>
</g>
<g id="LINE_201_">
	<line class="st0" x1="297.09" y1="189.97" x2="293.69" y2="189.97"/>
</g>
<g id="LINE_202_">
	<line class="st0" x1="297.09" y1="196.77" x2="300.49" y2="196.77"/>
</g>
<g id="LINE_203_">
	<line class="st0" x1="300.49" y1="196.77" x2="293.69" y2="196.77"/>
</g>
<g id="LINE_204_">
	<line class="st0" x1="237.6" y1="176.38" x2="237.6" y2="201.52"/>
</g>
<g id="LINE_205_">
	<line class="st0" x1="331.08" y1="74.41" x2="297.09" y2="74.41"/>
</g>
<g id="LINE_206_">
	<line class="st0" x1="297.09" y1="81.2" x2="331.08" y2="81.2"/>
</g>
<g id="LINE_207_">
	<line class="st0" x1="297.09" y1="101.6" x2="331.08" y2="101.6"/>
</g>
<g id="LINE_208_">
	<line class="st0" x1="297.09" y1="101.6" x2="297.09" y2="94.8"/>
</g>
<g id="LINE_209_">
	<line class="st0" x1="301.99" y1="94.8" x2="331.08" y2="94.8"/>
</g>
<g id="LINE_210_">
	<line class="st0" x1="331.08" y1="94.8" x2="331.08" y2="88"/>
</g>
<g id="LINE_211_">
	<line class="st0" x1="331.08" y1="88" x2="301.99" y2="88"/>
</g>
<g id="LINE_212_">
	<line class="st0" x1="297.09" y1="210.37" x2="331.08" y2="210.37"/>
</g>
<g id="LINE_213_">
	<line class="st0" x1="331.08" y1="210.37" x2="331.08" y2="74.41"/>
</g>
<g id="LINE_214_">
	<line class="st0" x1="445.8" y1="231.19" x2="472.14" y2="231.19"/>
</g>
<g id="LINE_215_">
	<line class="st0" x1="478.94" y1="231.19" x2="505.28" y2="231.19"/>
</g>
<g id="LINE_216_">
	<line class="st0" x1="539.27" y1="231.19" x2="539.27" y2="214.19"/>
</g>
<g id="LINE_217_">
	<line class="st0" x1="539.27" y1="214.19" x2="539.27" y2="197.2"/>
</g>
<g id="LINE_218_">
	<line class="st0" x1="539.27" y1="197.2" x2="539.27" y2="269.85"/>
</g>
<g id="LINE_219_">
	<line class="st0" x1="445.8" y1="269.85" x2="539.27" y2="269.85"/>
</g>
<g id="LINE_220_">
	<line class="st0" x1="114.39" y1="108.4" x2="127.98" y2="108.4"/>
</g>
<g id="LINE_221_">
	<line class="st0" x1="134.78" y1="108.4" x2="148.38" y2="108.4"/>
</g>
<g id="LINE_222_">
	<line class="st0" x1="127.98" y1="108.4" x2="127.98" y2="111.8"/>
</g>
<g id="LINE_223_">
	<line class="st0" x1="127.98" y1="111.8" x2="127.98" y2="105"/>
</g>
<g id="LINE_224_">
	<line class="st0" x1="134.78" y1="108.4" x2="134.78" y2="105"/>
</g>
<g id="LINE_225_">
	<line class="st0" x1="134.78" y1="105" x2="134.78" y2="111.8"/>
</g>
<g id="LINE_226_">
	<line class="st0" x1="297.09" y1="108.4" x2="310.68" y2="108.4"/>
</g>
<g id="LINE_227_">
	<line class="st0" x1="317.48" y1="108.4" x2="331.08" y2="108.4"/>
</g>
<g id="LINE_228_">
	<line class="st0" x1="310.68" y1="108.4" x2="310.68" y2="111.8"/>
</g>
<g id="LINE_229_">
	<line class="st0" x1="310.68" y1="111.8" x2="310.68" y2="105"/>
</g>
<g id="LINE_230_">
	<line class="st0" x1="317.48" y1="108.4" x2="317.48" y2="105"/>
</g>
<g id="LINE_231_">
	<line class="st0" x1="317.48" y1="105" x2="317.48" y2="111.8"/>
</g>
<g id="LINE_232_">
	<line class="st0" x1="505.28" y1="108.4" x2="518.88" y2="108.4"/>
</g>
<g id="LINE_233_">
	<line class="st0" x1="525.68" y1="108.4" x2="539.27" y2="108.4"/>
</g>
<g id="LINE_234_">
	<line class="st0" x1="518.88" y1="108.4" x2="518.88" y2="111.8"/>
</g>
<g id="LINE_235_">
	<line class="st0" x1="518.88" y1="111.8" x2="518.88" y2="105"/>
</g>
<g id="LINE_236_">
	<line class="st0" x1="525.68" y1="108.4" x2="525.68" y2="105"/>
</g>
<g id="LINE_237_">
	<line class="st0" x1="525.68" y1="105" x2="525.68" y2="111.8"/>
</g>
<g id="LINE_238_">
	<line class="st0" x1="505.28" y1="231.19" x2="505.28" y2="269.85"/>
</g>
<g id="LINE_239_">
	<line class="st0" x1="505.28" y1="231.19" x2="505.28" y2="244.78"/>
</g>
<g id="LINE_240_">
	<line class="st0" x1="539.27" y1="231.19" x2="525.68" y2="231.19"/>
</g>
<g id="LINE_241_">
	<line class="st0" x1="518.88" y1="231.19" x2="505.28" y2="231.19"/>
</g>
<g id="LINE_242_">
	<line class="st0" x1="505.28" y1="237.99" x2="539.27" y2="237.99"/>
</g>
<g id="LINE_243_">
	<line class="st0" x1="505.28" y1="258.38" x2="539.27" y2="258.38"/>
</g>
<g id="LINE_244_">
	<line class="st0" x1="510.18" y1="251.58" x2="539.27" y2="251.58"/>
</g>
<g id="LINE_245_">
	<line class="st0" x1="539.27" y1="251.58" x2="539.27" y2="244.78"/>
</g>
<g id="LINE_246_">
	<line class="st0" x1="539.27" y1="244.78" x2="510.18" y2="244.78"/>
</g>
<g id="LINE_247_">
	<line class="st0" x1="525.68" y1="265.18" x2="539.27" y2="265.18"/>
</g>
<g id="LWPOLYLINE">
	<polyline class="st0" points="505.28,258.38 505.28,251.58 505.28,265.18 	"/>
</g>
<g id="LINE_248_">
	<line class="st0" x1="539.27" y1="244.78" x2="505.28" y2="244.78"/>
</g>
<g id="LINE_249_">
	<line class="st0" x1="539.27" y1="251.58" x2="505.28" y2="251.58"/>
</g>
<g id="LINE_250_">
	<line class="st0" x1="539.27" y1="265.18" x2="505.28" y2="265.18"/>
</g>
<g id="LINE_251_">
	<line class="st0" x1="518.88" y1="231.19" x2="518.88" y2="227.79"/>
</g>
<g id="LINE_252_">
	<line class="st0" x1="518.88" y1="227.79" x2="518.88" y2="234.59"/>
</g>
<g id="LINE_253_">
	<line class="st0" x1="525.68" y1="231.19" x2="525.68" y2="227.79"/>
</g>
<g id="LINE_254_">
	<line class="st0" x1="525.68" y1="227.79" x2="525.68" y2="234.59"/>
</g>
<g id="LINE_255_">
	<line class="st0" x1="148.38" y1="231.19" x2="173.87" y2="231.19"/>
</g>
<g id="LINE_256_">
	<line class="st0" x1="445.8" y1="231.19" x2="445.8" y2="269.85"/>
</g>
<g id="LINE_257_">
	<line class="st0" x1="173.87" y1="231.19" x2="173.87" y2="240.52"/>
</g>
<g id="LINE_258_">
	<line class="st0" x1="173.87" y1="250.52" x2="173.87" y2="269.85"/>
</g>
<g id="LINE_259_">
	<line class="st0" x1="267.35" y1="231.19" x2="267.35" y2="269.85"/>
</g>
<g id="LINE_260_">
	<line class="st0" x1="360.82" y1="231.19" x2="360.82" y2="269.85"/>
</g>
<g id="LINE_261_">
	<line class="st0" x1="173.87" y1="240.52" x2="177.27" y2="240.52"/>
</g>
<g id="LINE_262_">
	<line class="st0" x1="177.27" y1="240.52" x2="170.47" y2="240.52"/>
</g>
<g id="LINE_263_">
	<line class="st0" x1="173.87" y1="250.52" x2="177.27" y2="250.52"/>
</g>
<g id="LINE_264_">
	<line class="st0" x1="177.27" y1="250.52" x2="170.47" y2="250.52"/>
</g>
<g id="LINE_265_">
	<line class="st0" x1="217.21" y1="231.19" x2="217.21" y2="227.79"/>
</g>
<g id="LINE_266_">
	<line class="st0" x1="217.21" y1="227.79" x2="217.21" y2="234.59"/>
</g>
<g id="LINE_267_">
	<line class="st0" x1="224.01" y1="231.19" x2="224.01" y2="227.79"/>
</g>
<g id="LINE_268_">
	<line class="st0" x1="224.01" y1="227.79" x2="224.01" y2="234.59"/>
</g>
<g id="LINE_269_">
	<line class="st0" x1="173.87" y1="231.19" x2="217.21" y2="231.19"/>
</g>
<g id="LINE_270_">
	<line class="st0" x1="224.01" y1="231.19" x2="267.35" y2="231.19"/>
</g>
<g id="LINE_271_">
	<line class="st0" x1="310.68" y1="231.19" x2="310.68" y2="227.79"/>
</g>
<g id="LINE_272_">
	<line class="st0" x1="310.68" y1="227.79" x2="310.68" y2="234.59"/>
</g>
<g id="LINE_273_">
	<line class="st0" x1="317.48" y1="231.19" x2="317.48" y2="227.79"/>
</g>
<g id="LINE_274_">
	<line class="st0" x1="317.48" y1="227.79" x2="317.48" y2="234.59"/>
</g>
<g id="LINE_275_">
	<line class="st0" x1="267.35" y1="231.19" x2="310.68" y2="231.19"/>
</g>
<g id="LINE_276_">
	<line class="st0" x1="317.48" y1="231.19" x2="360.82" y2="231.19"/>
</g>
<g id="LINE_277_">
	<line class="st0" x1="360.82" y1="231.19" x2="399.91" y2="231.19"/>
</g>
<g id="LINE_278_">
	<line class="st0" x1="399.91" y1="231.19" x2="399.91" y2="227.79"/>
</g>
<g id="LINE_279_">
	<line class="st0" x1="399.91" y1="227.79" x2="399.91" y2="234.59"/>
</g>
<g id="LINE_280_">
	<line class="st0" x1="445.8" y1="231.19" x2="406.71" y2="231.19"/>
</g>
<g id="LINE_281_">
	<line class="st0" x1="406.71" y1="231.19" x2="406.71" y2="227.79"/>
</g>
<g id="LINE_282_">
	<line class="st0" x1="406.71" y1="227.79" x2="406.71" y2="234.59"/>
</g>
<g id="LINE_283_">
	<line class="st0" x1="463.05" y1="269.85" x2="463.05" y2="397.32"/>
</g>
<g id="LINE_284_">
	<line class="st0" x1="463.05" y1="397.32" x2="463.05" y2="414.31"/>
</g>
<g id="LINE_285_">
	<line class="st0" x1="463.05" y1="414.31" x2="582.02" y2="414.31"/>
</g>
<g id="LINE_286_">
	<line class="st0" x1="582.02" y1="414.31" x2="582.02" y2="388.82"/>
</g>
<g id="LINE_287_">
	<line class="st0" x1="582.02" y1="388.82" x2="650" y2="388.82"/>
</g>
<g id="LINE_288_">
	<line class="st0" x1="650" y1="388.82" x2="650" y2="210.37"/>
</g>
<g id="LINE_289_">
	<line class="st0" x1="539.27" y1="210.37" x2="650" y2="210.37"/>
</g>
<g id="LINE_290_">
	<line class="st0" x1="582.02" y1="388.82" x2="582.02" y2="370.13"/>
</g>
<g id="LINE_291_">
	<line class="st0" x1="582.02" y1="359.93" x2="582.02" y2="337.84"/>
</g>
<g id="LINE_292_">
	<line class="st0" x1="582.02" y1="337.84" x2="594.64" y2="337.84"/>
</g>
<g id="LINE_293_">
	<line class="st0" x1="582.02" y1="370.13" x2="578.62" y2="370.13"/>
</g>
<g id="LINE_294_">
	<line class="st0" x1="578.62" y1="370.13" x2="585.42" y2="370.13"/>
</g>
<g id="LINE_295_">
	<line class="st0" x1="582.02" y1="359.93" x2="578.62" y2="359.93"/>
</g>
<g id="LINE_296_">
	<line class="st0" x1="578.62" y1="359.93" x2="585.42" y2="359.93"/>
</g>
<g id="LINE_297_">
	<line class="st0" x1="594.64" y1="388.82" x2="594.64" y2="370.13"/>
</g>
<g id="LINE_298_">
	<line class="st0" x1="594.64" y1="359.93" x2="594.64" y2="337.84"/>
</g>
<g id="LINE_299_">
	<line class="st0" x1="594.64" y1="370.13" x2="591.24" y2="370.13"/>
</g>
<g id="LINE_300_">
	<line class="st0" x1="591.24" y1="370.13" x2="598.04" y2="370.13"/>
</g>
<g id="LINE_301_">
	<line class="st0" x1="594.64" y1="359.93" x2="591.24" y2="359.93"/>
</g>
<g id="LINE_302_">
	<line class="st0" x1="591.24" y1="359.93" x2="598.04" y2="359.93"/>
</g>
<g id="LINE_303_">
	<line class="st0" x1="594.64" y1="337.84" x2="594.64" y2="290.4"/>
</g>
<g id="LINE_304_">
	<line class="st0" x1="594.64" y1="281.03" x2="594.64" y2="255.82"/>
</g>
<g id="LINE_305_">
	<line class="st0" x1="594.64" y1="247.95" x2="594.64" y2="226.23"/>
</g>
<g id="LINE_306_">
	<line class="st0" x1="594.64" y1="218.74" x2="594.64" y2="210.37"/>
</g>
<g id="LINE_307_">
	<line class="st0" x1="650" y1="210.37" x2="650" y2="244.36"/>
</g>
<g id="LINE_308_">
	<line class="st0" x1="650" y1="244.36" x2="650" y2="278.35"/>
</g>
<g id="LINE_309_">
	<line class="st0" x1="650" y1="210.37" x2="650" y2="244.36"/>
</g>
<g id="LINE_310_">
	<line class="st0" x1="650" y1="244.36" x2="650" y2="278.35"/>
</g>
<g id="LINE_311_">
	<line class="st0" x1="650" y1="278.35" x2="650" y2="312.34"/>
</g>
<g id="LINE_312_">
	<line class="st0" x1="650" y1="227.36" x2="650" y2="244.36"/>
</g>
<g id="LINE_313_">
	<line class="st0" x1="650" y1="244.36" x2="650" y2="261.36"/>
</g>
<g id="LINE_314_">
	<line class="st0" x1="650" y1="210.37" x2="650" y2="235.86"/>
</g>
<g id="LINE_315_">
	<line class="st0" x1="650" y1="235.86" x2="594.64" y2="235.86"/>
</g>
<g id="LINE_316_">
	<line class="st0" x1="650" y1="235.86" x2="650" y2="261.36"/>
</g>
<g id="LINE_317_">
	<line class="st0" x1="650" y1="269.85" x2="594.64" y2="269.85"/>
</g>
<g id="LINE_318_">
	<line class="st0" x1="650" y1="261.36" x2="650" y2="286.85"/>
</g>
<g id="LINE_319_">
	<line class="st0" x1="650" y1="303.84" x2="610.13" y2="303.84"/>
</g>
<g id="LINE_320_">
	<line class="st0" x1="602.62" y1="303.84" x2="594.64" y2="303.84"/>
</g>
<g id="LINE_321_">
	<line class="st0" x1="478.94" y1="231.19" x2="478.94" y2="227.79"/>
</g>
<g id="LINE_322_">
	<line class="st0" x1="478.94" y1="227.79" x2="478.94" y2="234.59"/>
</g>
<g id="LINE_323_">
	<line class="st0" x1="478.94" y1="234.59" x2="478.94" y2="231.19"/>
</g>
<g id="LINE_324_">
	<line class="st0" x1="472.14" y1="231.19" x2="472.14" y2="227.79"/>
</g>
<g id="LINE_325_">
	<line class="st0" x1="472.14" y1="227.79" x2="472.14" y2="234.59"/>
</g>
<g id="LINE_326_">
	<line class="st0" x1="602.62" y1="303.84" x2="602.62" y2="300.45"/>
</g>
<g id="LINE_327_">
	<line class="st0" x1="602.62" y1="300.45" x2="602.62" y2="307.24"/>
</g>
<g id="LINE_328_">
	<line class="st0" x1="610.13" y1="303.84" x2="610.13" y2="300.45"/>
</g>
<g id="LINE_329_">
	<line class="st0" x1="610.13" y1="300.45" x2="610.13" y2="307.24"/>
</g>
<g id="LINE_330_">
	<line class="st0" x1="594.64" y1="290.4" x2="598.04" y2="290.4"/>
</g>
<g id="LINE_331_">
	<line class="st0" x1="598.04" y1="290.4" x2="591.24" y2="290.4"/>
</g>
<g id="LINE_332_">
	<line class="st0" x1="594.64" y1="281.03" x2="598.04" y2="281.03"/>
</g>
<g id="LINE_333_">
	<line class="st0" x1="598.04" y1="281.03" x2="591.24" y2="281.03"/>
</g>
<g id="LINE_334_">
	<line class="st0" x1="594.64" y1="255.82" x2="598.04" y2="255.82"/>
</g>
<g id="LINE_335_">
	<line class="st0" x1="598.04" y1="255.82" x2="591.24" y2="255.82"/>
</g>
<g id="LINE_336_">
	<line class="st0" x1="594.64" y1="247.95" x2="598.04" y2="247.95"/>
</g>
<g id="LINE_337_">
	<line class="st0" x1="598.04" y1="247.95" x2="591.24" y2="247.95"/>
</g>
<g id="LINE_338_">
	<line class="st0" x1="594.64" y1="226.23" x2="598.04" y2="226.23"/>
</g>
<g id="LINE_339_">
	<line class="st0" x1="598.04" y1="226.23" x2="591.24" y2="226.23"/>
</g>
<g id="LINE_340_">
	<line class="st0" x1="594.64" y1="218.74" x2="598.04" y2="218.74"/>
</g>
<g id="LINE_341_">
	<line class="st0" x1="598.04" y1="218.74" x2="591.24" y2="218.74"/>
</g>
<g id="LINE_342_">
	<line class="st0" x1="650" y1="210.37" x2="650" y2="235.86"/>
</g>
<g id="LINE_343_">
	<line class="st0" x1="594.64" y1="235.86" x2="594.64" y2="210.37"/>
</g>
<g id="LINE_344_">
	<line class="st0" x1="594.64" y1="210.37" x2="611.63" y2="210.37"/>
</g>
<g id="LINE_345_">
	<line class="st0" x1="611.63" y1="210.37" x2="611.63" y2="235.86"/>
</g>
<g id="LINE_346_">
	<line class="st0" x1="611.63" y1="235.86" x2="620.13" y2="235.86"/>
</g>
<g id="LINE_347_">
	<line class="st0" x1="620.13" y1="235.86" x2="620.13" y2="210.37"/>
</g>
<g id="LINE_348_">
	<line class="st0" x1="620.13" y1="210.37" x2="628.63" y2="210.37"/>
</g>
<g id="LINE_349_">
	<line class="st0" x1="628.63" y1="210.37" x2="628.63" y2="235.86"/>
</g>
<g id="LINE_350_">
	<line class="st0" x1="628.63" y1="235.86" x2="628.63" y2="210.37"/>
</g>
<g id="LINE_351_">
	<line class="st0" x1="628.63" y1="210.37" x2="637.13" y2="210.37"/>
</g>
<g id="LINE_352_">
	<line class="st0" x1="637.13" y1="210.37" x2="637.13" y2="235.86"/>
</g>
<g id="LINE_353_">
	<line class="st0" x1="637.13" y1="235.86" x2="645.62" y2="235.86"/>
</g>
<g id="LINE_354_">
	<line class="st0" x1="645.62" y1="235.86" x2="645.62" y2="210.37"/>
</g>
<g id="LINE_355_">
	<line class="st0" x1="645.62" y1="210.37" x2="611.63" y2="210.37"/>
</g>
<g id="LINE_356_">
	<line class="st0" x1="611.63" y1="210.37" x2="603.13" y2="210.37"/>
</g>
<g id="LINE_357_">
	<line class="st0" x1="603.13" y1="210.37" x2="603.13" y2="235.86"/>
</g>
<polyline class="st1" points="131.24,358.23 131.24,121.99 134.23,129.11 128.06,129.11 131.24,121.99 "/>
<polyline class="st1" points="522.38,220.59 522.38,117.73 525.36,124.85 519.19,124.85 522.38,117.73 "/>
<polyline class="st1" points="522.18,123.73 522.18,226.59 519.19,219.47 525.36,219.47 522.18,226.59 "/>
<polyline class="st1" points="522.28,220.59 121.6,221.59 128.72,218.61 128.72,224.78 121.6,221.59 "/>
<polyline class="st1" points="76.57,89.92 100.54,89.92 93.42,92.91 93.42,86.73 100.54,89.92 "/>
<polyline class="st1" points="75.57,125.49 99.54,125.49 92.42,128.48 92.42,122.31 99.54,125.49 "/>
<polyline class="st1" points="254.48,125.49 278.45,125.49 271.33,128.48 271.33,122.31 278.45,125.49 "/>
<polyline class="st1" points="75.57,159.48 99.54,159.48 92.42,162.47 92.42,156.3 99.54,159.48 "/>
<polyline class="st1" points="75.33,193.47 99.3,193.47 92.19,196.46 92.19,190.29 99.3,193.47 "/>
<polyline class="st1" points="220.32,262.51 220.32,238.54 223.31,245.65 217.14,245.65 220.32,238.54 "/>
<polyline class="st2" points="154.67,245.47 168.3,245.47 164.25,247.17 164.25,243.66 168.3,245.47 "/>
<polyline class="st1" points="314.18,262.51 314.18,238.54 317.17,245.65 311,245.65 314.18,238.54 "/>
<polyline class="st1" points="403.41,262.51 403.41,238.54 406.39,245.65 400.22,245.65 403.41,238.54 "/>
<polyline class="st1" points="474.75,262.51 474.75,238.54 477.74,245.65 471.57,245.65 474.75,238.54 "/>
<polyline class="st1" points="254.48,89.92 278.45,89.92 271.33,92.91 271.33,86.73 278.45,89.92 "/>
<polyline class="st1" points="254.48,159.48 278.45,159.48 271.33,162.47 271.33,156.3 278.45,159.48 "/>
<polyline class="st1" points="256.24,193.47 280.22,193.47 273.1,196.46 273.1,190.29 280.22,193.47 "/>
<polyline class="st1" points="462.67,125.49 486.64,125.49 479.52,128.48 479.52,122.31 486.64,125.49 "/>
<polyline class="st1" points="462.67,89.92 486.64,89.92 479.52,92.91 479.52,86.73 486.64,89.92 "/>
<polyline class="st1" points="462.67,159.48 486.64,159.48 479.52,162.47 479.52,156.3 486.64,159.48 "/>
<polyline class="st1" points="464.44,193.47 488.41,193.47 481.29,196.46 481.29,190.29 488.41,193.47 "/>
<polyline class="st1" points="75.33,252.96 99.3,252.96 92.19,255.94 92.19,249.77 99.3,252.96 "/>
<polyline class="st1" points="75.33,286.95 99.3,286.95 92.19,289.93 92.19,283.76 99.3,286.95 "/>
<polyline class="st1" points="631.3,285.35 607.33,285.35 614.45,282.36 614.45,288.54 607.33,285.35 "/>
<polyline class="st1" points="631.3,365.04 607.33,365.04 614.45,362.05 614.45,368.22 607.33,365.04 "/>
<polyline class="st1" points="607.43,337.28 607.43,313.31 610.42,320.43 604.25,320.43 607.43,313.31 "/>
<polyline class="st1" points="563.47,223.21 587.44,223.21 580.32,226.2 580.32,220.03 587.44,223.21 "/>
<polyline class="st1" points="631.3,252.76 607.33,252.76 614.45,249.77 614.45,255.94 607.33,252.76 "/>
<polyline class="st1" points="75.33,320.94 99.3,320.94 92.19,323.93 92.19,317.75 99.3,320.94 "/>
<polyline class="st1" points="75.33,354.93 99.3,354.93 92.19,357.92 92.19,351.75 99.3,354.93 "/>
<g>
	<path class="st3" d="M61.87,89.82"/>
</g>
<g>
	<path class="st3" d="M103.99,90.54"/>
</g>
<g>
	<path class="st3" d="M72.49,91.08"/>
</g>
<g>
	<path class="st4" d="M128.07,342.48h-8.09c-0.48,0-0.88-0.39-0.88-0.88v-8.09c0-0.11,0.15-0.32,0.33-0.51
		c0.19-0.2,0.42-0.37,0.55-0.37h8.09c0.48,0,0.88,0.39,0.88,0.88v8.09C128.95,342.09,128.56,342.48,128.07,342.48z"/>
	<path class="st4" d="M119.83,333.14c0,0,1.38,4.42,4.2,4.42s4.61-4.7,4.61-4.7"/>
	<g>
		<line class="st4" x1="124.03" y1="337.84" x2="124.03" y2="342.48"/>
	</g>
</g>
<g>
	<path class="st4" d="M143.19,125.03h-8.09c-0.48,0-0.88-0.39-0.88-0.88v-8.08c0-0.11,0.15-0.32,0.33-0.51
		c0.19-0.2,0.42-0.37,0.55-0.37h8.09c0.48,0,0.88,0.39,0.88,0.88v8.08C144.07,124.64,143.68,125.03,143.19,125.03z"/>
	<path class="st4" d="M134.95,115.69c0,0,1.38,4.43,4.2,4.43c2.82,0,4.61-4.7,4.61-4.7"/>
	<g>
		<line class="st4" x1="139.15" y1="120.39" x2="139.15" y2="125.03"/>
	</g>
</g>
<g>
	<path class="st4" d="M314.73,126.91h-8.09c-0.48,0-0.88-0.39-0.88-0.88v-8.08c0-0.11,0.15-0.32,0.33-0.51
		c0.19-0.2,0.42-0.37,0.55-0.37h8.09c0.48,0,0.88,0.39,0.88,0.88v8.08C315.6,126.52,315.21,126.91,314.73,126.91z"/>
	<path class="st4" d="M306.48,117.57c0,0,1.38,4.42,4.2,4.42s4.61-4.7,4.61-4.7"/>
	<g>
		<line class="st4" x1="310.68" y1="122.27" x2="310.68" y2="126.91"/>
	</g>
</g>
<g>
	<path class="st4" d="M536.36,124.56h-8.08c-0.48,0-0.88-0.39-0.88-0.88v-8.08c0-0.11,0.15-0.32,0.33-0.51
		c0.19-0.2,0.42-0.37,0.55-0.37h8.08c0.48,0,0.88,0.39,0.88,0.88v8.08C537.24,124.17,536.85,124.56,536.36,124.56z"/>
	<path class="st4" d="M528.12,115.22c0,0,1.38,4.43,4.2,4.43s4.61-4.7,4.61-4.7"/>
	<g>
		<line class="st4" x1="532.32" y1="119.92" x2="532.32" y2="124.56"/>
	</g>
</g>
<g>
	<path class="st4" d="M584.36,325.76h-8.09c-0.48,0-0.88-0.39-0.88-0.88v-8.08c0-0.11,0.15-0.32,0.33-0.51
		c0.19-0.2,0.42-0.37,0.55-0.37h8.09c0.48,0,0.88,0.39,0.88,0.88v8.08C585.24,325.37,584.85,325.76,584.36,325.76z"/>
	<path class="st4" d="M576.12,316.41c0,0,1.38,4.43,4.2,4.43c2.82,0,4.61-4.7,4.61-4.7"/>
	<g>
		<line class="st4" x1="580.32" y1="321.11" x2="580.32" y2="325.76"/>
	</g>
</g>
<g>
	<circle class="st5" cx="140.29" cy="158.55" r="4.29"/>
	<path class="st6" d="M144.58,158.55c0,2.37-1.92,4.29-4.29,4.29c-2.37,0-4.29-1.92-4.29-4.29H144.58z"/>
	<line class="st7" x1="144.58" y1="158.55" x2="146.2" y2="158.55"/>
	<line class="st7" x1="135.99" y1="158.55" x2="134.23" y2="158.55"/>
	<line class="st7" x1="140.29" y1="154.18" x2="140.29" y2="152.45"/>
</g>
<g>
	<circle class="st5" cx="140.29" cy="322.56" r="4.29"/>
	<path class="st6" d="M144.58,322.56c0,2.37-1.92,4.29-4.29,4.29c-2.37,0-4.29-1.92-4.29-4.29H144.58z"/>
	<line class="st7" x1="144.58" y1="322.56" x2="146.2" y2="322.56"/>
	<line class="st7" x1="135.99" y1="322.56" x2="134.23" y2="322.56"/>
	<line class="st7" x1="140.29" y1="318.2" x2="140.29" y2="316.47"/>
</g>
<g>
	<circle class="st5" cx="321.13" cy="164.1" r="4.29"/>
	<path class="st6" d="M325.42,164.1c0,2.37-1.92,4.29-4.29,4.29s-4.29-1.92-4.29-4.29H325.42z"/>
	<line class="st7" x1="325.42" y1="164.1" x2="327.04" y2="164.1"/>
	<line class="st7" x1="316.83" y1="164.1" x2="315.07" y2="164.1"/>
	<line class="st7" x1="321.13" y1="159.74" x2="321.13" y2="158.01"/>
</g>
<g>
	<circle class="st5" cx="380.44" cy="217.94" r="4.29"/>
	<path class="st6" d="M384.73,217.94c0,2.37-1.92,4.29-4.29,4.29c-2.37,0-4.29-1.92-4.29-4.29H384.73z"/>
	<line class="st7" x1="384.73" y1="217.94" x2="386.35" y2="217.94"/>
	<line class="st7" x1="376.14" y1="217.94" x2="374.38" y2="217.94"/>
	<line class="st7" x1="380.44" y1="213.58" x2="380.44" y2="211.85"/>
</g>
<g>
	<circle class="st5" cx="530.78" cy="153.71" r="4.29"/>
	<path class="st6" d="M535.08,153.71c0,2.37-1.92,4.29-4.29,4.29c-2.37,0-4.29-1.92-4.29-4.29H535.08z"/>
	<line class="st7" x1="535.08" y1="153.71" x2="536.7" y2="153.71"/>
	<line class="st7" x1="526.49" y1="153.71" x2="524.73" y2="153.71"/>
	<line class="st7" x1="530.78" y1="149.35" x2="530.78" y2="147.61"/>
</g>
</svg>
